<svg width="37" height="26" viewBox="0 0 37 26" fill="none" xmlns="http://www.w3.org/2000/svg">
<path d="M9.1 25.9421C13.6 25.9421 16.9 22.8421 16.9 18.2421C16.9 13.6421 13.6 10.8421 9.7 10.8421C8.2 10.8421 6.5 11.2421 5.5 12.4421C5.7 10.3421 6.5 8.44209 7.8 7.14209C9.1 5.74209 11 4.84209 13.3 4.84209C15.3 4.84209 15.5 4.84209 16.9 5.04209V0.442086C16 0.242089 14.5 0.14209 13.3 0.14209C4.4 0.14209 0 6.44209 0 14.6421C0 22.8421 5.2 25.9421 9.1 25.9421ZM29 25.9421C33.5 25.9421 36.8 22.8421 36.8 18.2421C36.8 13.6421 33.5 10.8421 29.6 10.8421C28.1 10.8421 26.4 11.2421 25.4 12.4421C25.6 10.3421 26.4 8.44209 27.7 7.14209C29 5.74209 30.9 4.84209 33.2 4.84209C35.2 4.84209 35.4 4.84209 36.8 5.04209V0.442086C35.9 0.242089 34.4 0.14209 33.2 0.14209C24.3 0.14209 19.9 6.44209 19.9 14.6421C19.9 22.8421 25.1 25.9421 29 25.9421Z" fill="#DE3636"/>
</svg>
